<svg width="4500" height="1808" xmlns="http://www.w3.org/2000/svg"><g stroke="null" stroke-linejoin="round" stroke-linecap="round" stroke-width="20" fill="none"><path stroke="#002d68" stroke-dashoffset="10895" stroke-dasharray="10895 10895" d="M1085.13 1002.63c148.04-5 264.4-220.95 303.94-294.08 39.54-73.13 41.22-180.84 13.93-235.42-27.3-54.59-120.62-11.26-157.93 17.92-37.31 29.19-58.7 44-90.95 74.45-41.62 39.3-74.7 77.6-99.3 108.36-43.68 54.59-165.13 238.31-109.16 441.63 55.95 203.32 203.6 210.4 286.85 202.2 83.26-8.18 238.54-81.73 324.53-164.97s200.98-187.04 281.36-308.38c80.39-121.35 126.85-233.26 158.25-327.42 31.38-94.15 111.88-365.49 111.88-365.49s-21.75 374.92-19.01 480c2.73 105.06 2.73 165.1 8.19 236.06 5.45 70.96 39.93 418.41 39.93 418.41s-75.3-234.13-143.53-326.92c-68.24-92.8-139.35-184.28-208.96-227.94-69.6-43.68-146.04-84.6-215.64-90.06-69.61-5.47-110.26 26.43-99.63 125.95 10.62 99.51 129.61 224.67 163.74 260.15 34.12 35.48 147.63 116.1 299.13 113.37 151.5-2.73 255.35-79.3 324.95-161.17 69.61-81.87 103.37-131.98 103.37-131.98s-1.31 104.8 2.78 167.56 5.5 144.8 84.66 196.66c79.17 51.85 169.64-92.97 194.21-136.64 24.57-43.66 68.99-120.13 84.68-156.94 15.7-36.8 59.57-189.5 59.57-189.5s32.8-141.67 5.58-146.37c-27.23-4.7-52.04 108.55-64.8 200.02-12.77 91.45-13.66 194.67-9.3 261.07 2.58 39.46 4.68 45.39 12.26 79.03 4.13 18.33 7.03 35.7 28.76 52.52 21.74 16.83 73.77-9.62 93.07-23.68 19.3-14.07 63.62-50.8 90.82-79.18 27.2-28.38 103.65-85.91 125-101.88 21.34-15.96 72.46-26.27 102.79-22 30.33 4.28 51.11 12.19 42.72 40.62s-17.85 49.45-45.26 87.98-53.33 61.88-79.1 75.3-62.32 22.23-86.72 1.7c-24.4-20.54-25.06-45.81-22.5-68.03 2.58-22.21 19.43-69.99 47.88-94.42 28.45-24.42 73.76-34.7 93.9-38.07 20.16-3.36 71.54-11.33 104.29-6.92 32.76 4.42 30.02 16.84 33.62 34.42 3.6 17.57 5.8 38.79 5.92 72.34.12 33.54-4.07 41.45-11.84 71.06s-16.56 47.95-19.23 47.39c-2.67-.56-.89-21.3 11.92-50.04s22.73-47.04 36.5-69.26c13.76-22.23 33.18-46.48 56.68-74.45s36.36-40.43 48.23-46.96c11.87-6.52 35.3-26.1 29.18 20.73-6.12 46.83-6.58 53.8-7.19 77.41-.6 23.6-2.21 34.9-.42 61.76 1.8 26.87 4.23 41.25 15.23 59.23s42.3 11.32 56.26 7.61c13.96-3.7 38.5-19.46 38.5-19.46"><animate id="a" attributeName="stroke-dashoffset" from="10895" to="0" begin="1s;repeat.click+0.25s" dur="3s" keyTimes="0;1" calcMode="spline" keySplines=".12,0,.2,0;"/><set attributeName="stroke-dashoffset" to="0" begin="a.end" end="repeat.click;indefinite"/></path><path stroke="#002d68" stroke-dashoffset="448" stroke-dasharray="448 448" d="M2532.23 937.7c-29.87 17.14-61.93 63.04-82.4 86.26-20.45 23.22-74.1 87.37-95.1 112.8-21.02 25.44-117.23 137.14-117.23 137.14"><animate id="b" attributeName="stroke-dashoffset" from="448" to="0" begin="a.end" dur=".15s" keyTimes="0;1" calcMode="spline" keySplines=".12,0,.39,0;"/><set attributeName="stroke-dashoffset" to="0" begin="b.end" end="repeat.click;indefinite"/></path><path stroke="#002d68" stroke-dashoffset="242" stroke-dasharray="242 242" d="M2603.8 894.98l238.59-37.95"><animate id="c" attributeName="stroke-dashoffset" from="242" to="0" begin="b.end" dur=".08s" keyTimes="0;1" calcMode="spline" keySplines=".12,0,.39,0;"/><set attributeName="stroke-dashoffset" to="0" begin="c.end" end="repeat.click;indefinite"/></path><path stroke="#0094ce" stroke-dashoffset="2676" stroke-dasharray="2676 2676" d="M931.19 1656.57c629.67-294.02 2637.62-387.52 2637.62-387.52" stroke-width="50"><animate id="d" attributeName="stroke-dashoffset" from="2676" to="0" begin="c.end+.25s" dur=".12s" keyTimes="0;1" calcMode="spline" keySplines=".12,0,.39,0;"/><set attributeName="stroke-dashoffset" to="0" begin="d.end" end="repeat.click;indefinite"/></path></g></svg>
