<svg width="3146" height="1808" xmlns="http://www.w3.org/2000/svg"><g fill="none" stroke-width="25" stroke-linecap="round" stroke-linejoin="round"><path xmlns="http://www.w3.org/2000/svg" d="M195.96 1020.1c174.98-5.9 312.51-261.16 359.25-347.6 46.73-86.44 48.72-213.75 16.46-278.26C539.4 329.72 429.1 380.93 385 415.42c-44.1 34.5-69.39 52-107.5 88-49.2 46.46-88.29 91.73-117.38 128.08-51.62 64.52-195.17 281.68-129.02 522 66.14 240.32 240.66 248.68 339.06 239 98.41-9.68 281.95-96.61 383.58-195S991.3 976.43 1086.31 833c95.01-143.43 149.93-275.71 187.04-387 37.1-111.29 132.24-432 132.24-432s-25.7 443.14-22.47 567.34c3.23 124.19 3.23 195.16 9.68 279.03 6.45 83.87 47.2 494.55 47.2 494.55s-88.99-276.74-169.65-386.42c-80.66-109.68-164.71-217.81-246.98-269.42-82.27-51.62-172.62-100-254.89-106.45-82.28-6.46-130.32 31.24-117.76 148.87 12.56 117.63 153.2 265.56 193.54 307.5 40.33 41.94 174.5 137.23 353.57 134 179.07-3.23 301.81-93.73 384.08-190.5 82.28-96.77 122.18-156 122.18-156s-1.55 123.87 3.29 198.06 6.51 171.15 100.07 232.44c93.57 61.29 200.51-109.89 229.55-161.5 29.04-51.61 81.54-142 100.09-185.5 18.55-43.5 70.41-224 70.41-224s38.77-167.44 6.59-173c-32.18-5.56-61.5 128.31-76.59 236.42-15.09 108.1-16.14 230.1-11 308.58 3.06 46.64 5.54 53.65 14.5 93.42 4.88 21.66 8.31 42.19 34 62.08 25.69 19.89 87.19-11.38 110-28 22.81-16.62 75.2-60.05 107.35-93.59 32.15-33.54 122.51-101.54 147.74-120.41 25.23-18.87 85.65-31.05 121.5-26 35.85 5.05 60.42 14.4 50.5 48-9.92 33.61-21.1 58.45-53.5 104s-63.03 73.14-93.5 89-73.66 26.27-102.5 2c-28.84-24.27-29.62-54.14-26.58-80.4 3.04-26.26 22.95-82.73 56.58-111.6 33.63-28.87 87.19-41.03 111-45 23.82-3.97 84.55-13.4 123.26-8.18 38.72 5.22 35.48 19.9 39.74 40.68 4.26 20.77 6.86 45.85 7 85.5.14 39.65-4.82 49-14 84s-19.57 56.67-22.73 56.01c-3.16-.66-1.05-25.17 14.09-59.15s26.87-55.59 43.14-81.86c16.27-26.27 39.22-54.94 67-88s42.98-47.79 57-55.5c14.03-7.71 41.74-30.85 34.5 24.5-7.24 55.35-7.78 63.6-8.5 91.5-.72 27.9-2.62 41.25-.5 73 2.13 31.75 5 48.75 18 70s50 13.38 66.5 9c16.5-4.38 45.5-23 45.5-23" stroke="#002d68" stroke-dasharray="12882 12882" stroke-dashoffset="12882"><animate id="a" attributeName="stroke-dashoffset" from="12882" to="0" begin="1s;repeat.click+0.25s" dur="3s" keyTimes="0;1" calcMode="spline" keySplines=".12,0,.2,0;"/><set attributeName="stroke-dashoffset" to="0" begin="a.end" end="repeat.click;indefinite"/></path><path d="M1906.4 943.35c-35.3 20.26-73.2 74.51-97.39 101.96-24.18 27.45-87.58 103.27-112.42 133.33-24.83 30.07-138.56 162.1-138.56 162.1" stroke="#002d68" stroke-dasharray="530 530" stroke-dashoffset="530"><animate id="b" attributeName="stroke-dashoffset" from="530" to="0" begin="a.end" dur=".15s" keyTimes="0;1" calcMode="spline" keySplines=".12,0,.39,0;"/><set attributeName="stroke-dashoffset" to="0" begin="b.end" end="repeat.click;indefinite"/></path><path d="M1991 892.86L2273 848" stroke="#002d68" stroke-dasharray="286 286" stroke-dashoffset="286"><animate id="c" attributeName="stroke-dashoffset" from="286" to="0" begin="b.end" dur=".08s" keyTimes="0;1" calcMode="spline" keySplines=".12,0,.39,0;"/><set attributeName="stroke-dashoffset" to="0" begin="c.end" end="repeat.click;indefinite"/></path><path d="M14 1793.04C758.26 1445.52 3131.62 1335 3131.62 1335" stroke="#0094ce" stroke-dasharray="3163 3163" stroke-dashoffset="3163"><animate id="d" attributeName="stroke-dashoffset" from="3163" to="0" begin="c.end+.25s" dur=".1s" keyTimes="0;1" calcMode="spline" keySplines=".12,0,.39,0;"/><set attributeName="stroke-dashoffset" to="0" begin="d.end" end="repeat.click;indefinite"/></path></g></svg>